<svg width="320" height="68" viewBox="0 0 320 68" fill="none" xmlns="http://www.w3.org/2000/svg">
<g clip-path="url(#clip0_4974_1211)">
<mask id="mask0_4974_1211" style="mask-type:luminance" maskUnits="userSpaceOnUse" x="0" y="0" width="320" height="68">
<path d="M320 0H0V68H320V0Z" fill="white"/>
</mask>
<g mask="url(#mask0_4974_1211)">
<path d="M107.549 15.1819C108.54 13.6926 109.901 12.4925 111.646 11.5816C113.392 10.6707 115.433 10.208 117.77 10.208C120.507 10.208 122.977 10.8731 125.196 12.2033C127.414 13.5335 129.16 15.4421 130.417 17.929C131.719 20.416 132.384 23.2933 132.384 26.5754C132.384 29.8576 131.733 32.7494 130.417 35.2652C129.145 37.7521 127.399 39.6752 125.196 41.0487C122.977 42.379 120.507 43.0585 117.77 43.0585C115.478 43.0585 113.436 42.5958 111.646 41.6849C109.901 40.774 108.54 39.5884 107.549 38.1425V57.821H97.3875V10.6562H107.549V15.1819ZM122.045 26.561C122.045 24.1174 121.335 22.2089 119.9 20.8353C118.51 19.4183 116.794 18.7243 114.738 18.7243C112.682 18.7243 110.996 19.4328 109.576 20.8353C108.185 22.2522 107.49 24.1753 107.49 26.6188C107.49 29.0624 108.185 30.9854 109.576 32.4024C110.996 33.8193 112.726 34.5133 114.738 34.5133C116.75 34.5133 118.48 33.8049 119.9 32.4024C121.32 30.9565 122.045 29.0045 122.045 26.561Z" fill="black"/>
<path d="M133.908 26.561C133.908 23.2788 134.544 20.4015 135.816 17.929C137.118 15.4421 138.878 13.548 141.097 12.2033C143.315 10.8731 145.786 10.208 148.522 10.208C150.859 10.208 152.9 10.6707 154.646 11.5816C156.435 12.4925 157.796 13.6926 158.743 15.1819V10.6707H168.905V42.5958H158.743V38.0847C157.752 39.5739 156.362 40.774 154.587 41.6849C152.841 42.5958 150.8 43.0585 148.463 43.0585C145.771 43.0585 143.315 42.3934 141.097 41.0632C138.878 39.6896 137.118 37.7666 135.816 35.2797C134.544 32.7638 133.908 29.8576 133.908 26.5754M158.743 26.6188C158.743 24.1753 158.033 22.2522 156.598 20.8353C155.208 19.4183 153.507 18.7243 151.495 18.7243C149.483 18.7243 147.753 19.4328 146.318 20.8353C144.928 22.2089 144.232 24.1174 144.232 26.561C144.232 29.0045 144.928 30.942 146.318 32.4024C147.738 33.8193 149.469 34.5133 151.495 34.5133C153.522 34.5133 155.223 33.8049 156.598 32.4024C158.018 30.9854 158.743 29.0624 158.743 26.6188Z" fill="black"/>
<path d="M208.339 10.6562L187.542 57.7343H176.611L184.214 41.497L170.724 10.6562H182.069L189.746 30.6239L197.349 10.6562H208.339Z" fill="black"/>
<path d="M208.206 26.561C208.206 23.2788 208.842 20.4015 210.114 17.929C211.415 15.4421 213.176 13.548 215.394 12.2033C217.613 10.8587 220.083 10.208 222.82 10.208C225.157 10.208 227.198 10.6707 228.943 11.5816C230.733 12.4925 232.094 13.6926 233.041 15.1819V10.6707H243.202V42.5958H233.041V38.0847C232.05 39.5739 230.659 40.774 228.884 41.6849C227.139 42.5958 225.098 43.0585 222.76 43.0585C220.068 43.0585 217.613 42.3934 215.394 41.0632C213.176 39.6896 211.415 37.7666 210.114 35.2797C208.842 32.7638 208.206 29.8576 208.206 26.5754M233.041 26.6188C233.041 24.1753 232.331 22.2522 230.896 20.8353C229.505 19.4183 227.804 18.7243 225.793 18.7243C223.781 18.7243 222.05 19.4328 220.63 20.8353C219.24 22.2089 218.545 24.1174 218.545 26.561C218.545 29.0045 219.24 30.942 220.63 32.4024C222.05 33.8193 223.781 34.5133 225.793 34.5133C227.804 34.5133 229.52 33.8049 230.896 32.4024C232.316 30.9854 233.041 29.0624 233.041 26.6188Z" fill="black"/>
<path d="M268.969 10.3093C272.845 10.3093 275.936 11.5239 278.244 13.9674C280.581 16.3676 281.749 19.6931 281.749 23.9151V42.567H271.647V25.2309C271.647 23.091 271.07 21.4426 269.931 20.257C268.777 19.0714 267.239 18.4786 265.301 18.4786C263.363 18.4786 261.81 19.0714 260.671 20.257C259.518 21.4426 258.955 23.091 258.955 25.2309V42.567H248.794V10.6563H258.955V14.8928C259.991 13.4758 261.367 12.3769 263.112 11.5672C264.857 10.7286 266.81 10.3093 268.999 10.3093" fill="black"/>
<path d="M285.003 26.561C285.003 23.2788 285.639 20.4015 286.912 17.929C288.213 15.4421 289.988 13.548 292.192 12.2033C294.411 10.8731 296.881 10.208 299.617 10.208C301.955 10.208 303.996 10.6707 305.741 11.5816C307.531 12.4925 308.892 13.6926 309.838 15.1819V10.6707H320V42.5958H309.838V38.0847C308.847 39.5739 307.457 40.774 305.682 41.6849C303.937 42.5958 301.895 43.0585 299.558 43.0585C296.866 43.0585 294.411 42.3934 292.192 41.0632C289.973 39.6896 288.213 37.7666 286.912 35.2797C285.639 32.7638 285.003 29.8576 285.003 26.5754M309.838 26.6188C309.838 24.1753 309.128 22.2522 307.694 20.8353C306.303 19.4183 304.602 18.7243 302.591 18.7243C300.579 18.7243 298.848 19.4328 297.428 20.8353C296.038 22.2089 295.343 24.1174 295.343 26.561C295.343 29.0045 296.038 30.942 297.428 32.4024C298.848 33.8193 300.579 34.5133 302.591 34.5133C304.602 34.5133 306.318 33.8049 307.694 32.4024C309.114 30.9854 309.838 29.0624 309.838 26.6188Z" fill="black"/>
<path d="M107.549 15.1819C108.54 13.6926 109.901 12.4925 111.646 11.5816C113.392 10.6707 115.433 10.208 117.77 10.208C120.507 10.208 122.977 10.8731 125.196 12.2033C127.414 13.5335 129.16 15.4421 130.417 17.929C131.719 20.416 132.384 23.2933 132.384 26.5754C132.384 29.8576 131.733 32.7494 130.417 35.2652C129.145 37.7521 127.399 39.6752 125.196 41.0487C122.977 42.379 120.507 43.0585 117.77 43.0585C115.478 43.0585 113.436 42.5958 111.646 41.6849C109.901 40.774 108.54 39.5884 107.549 38.1425V57.821H97.3875V10.6562H107.549V15.1819ZM122.045 26.561C122.045 24.1174 121.335 22.2089 119.9 20.8353C118.51 19.4183 116.794 18.7243 114.738 18.7243C112.682 18.7243 110.996 19.4328 109.576 20.8353C108.185 22.2522 107.49 24.1753 107.49 26.6188C107.49 29.0624 108.185 30.9854 109.576 32.4024C110.996 33.8193 112.726 34.5133 114.738 34.5133C116.75 34.5133 118.48 33.8049 119.9 32.4024C121.32 30.9565 122.045 29.0045 122.045 26.561Z" fill="#030730"/>
<path d="M133.908 26.561C133.908 23.2788 134.544 20.4015 135.816 17.929C137.118 15.4421 138.878 13.548 141.097 12.2033C143.315 10.8731 145.786 10.208 148.522 10.208C150.859 10.208 152.9 10.6707 154.646 11.5816C156.435 12.4925 157.796 13.6926 158.743 15.1819V10.6707H168.905V42.5958H158.743V38.0847C157.752 39.5739 156.362 40.774 154.587 41.6849C152.841 42.5958 150.8 43.0585 148.463 43.0585C145.771 43.0585 143.315 42.3934 141.097 41.0632C138.878 39.6896 137.118 37.7666 135.816 35.2797C134.544 32.7638 133.908 29.8576 133.908 26.5754M158.743 26.6188C158.743 24.1753 158.033 22.2522 156.598 20.8353C155.208 19.4183 153.507 18.7243 151.495 18.7243C149.483 18.7243 147.753 19.4328 146.318 20.8353C144.928 22.2089 144.232 24.1174 144.232 26.561C144.232 29.0045 144.928 30.942 146.318 32.4024C147.738 33.8193 149.469 34.5133 151.495 34.5133C153.522 34.5133 155.223 33.8049 156.598 32.4024C158.018 30.9854 158.743 29.0624 158.743 26.6188Z" fill="#030730"/>
<path d="M208.339 10.6562L187.542 57.7343H176.611L184.214 41.497L170.724 10.6562H182.069L189.746 30.6239L197.349 10.6562H208.339Z" fill="#030730"/>
<path d="M208.206 26.561C208.206 23.2788 208.842 20.4015 210.114 17.929C211.415 15.4421 213.176 13.548 215.394 12.2033C217.613 10.8587 220.083 10.208 222.82 10.208C225.157 10.208 227.198 10.6707 228.943 11.5816C230.733 12.4925 232.094 13.6926 233.041 15.1819V10.6707H243.202V42.5958H233.041V38.0847C232.05 39.5739 230.659 40.774 228.884 41.6849C227.139 42.5958 225.098 43.0585 222.76 43.0585C220.068 43.0585 217.613 42.3934 215.394 41.0632C213.176 39.6896 211.415 37.7666 210.114 35.2797C208.842 32.7638 208.206 29.8576 208.206 26.5754M233.041 26.6188C233.041 24.1753 232.331 22.2522 230.896 20.8353C229.505 19.4183 227.804 18.7243 225.793 18.7243C223.781 18.7243 222.05 19.4328 220.63 20.8353C219.24 22.2089 218.545 24.1174 218.545 26.561C218.545 29.0045 219.24 30.942 220.63 32.4024C222.05 33.8193 223.781 34.5133 225.793 34.5133C227.804 34.5133 229.52 33.8049 230.896 32.4024C232.316 30.9854 233.041 29.0624 233.041 26.6188Z" fill="#030730"/>
<path d="M268.969 10.3093C272.845 10.3093 275.936 11.5239 278.244 13.9674C280.581 16.3676 281.749 19.6931 281.749 23.9151V42.567H271.647V25.2309C271.647 23.091 271.07 21.4426 269.931 20.257C268.777 19.0714 267.239 18.4786 265.301 18.4786C263.363 18.4786 261.81 19.0714 260.671 20.257C259.518 21.4426 258.955 23.091 258.955 25.2309V42.567H248.794V10.6563H258.955V14.8928C259.991 13.4758 261.367 12.3769 263.112 11.5672C264.857 10.7286 266.81 10.3093 268.999 10.3093" fill="#030730"/>
<path d="M285.003 26.561C285.003 23.2788 285.639 20.4015 286.912 17.929C288.213 15.4421 289.988 13.548 292.192 12.2033C294.411 10.8731 296.881 10.208 299.617 10.208C301.955 10.208 303.996 10.6707 305.741 11.5816C307.531 12.4925 308.892 13.6926 309.838 15.1819V10.6707H320V42.5958H309.838V38.0847C308.847 39.5739 307.457 40.774 305.682 41.6849C303.937 42.5958 301.895 43.0585 299.558 43.0585C296.866 43.0585 294.411 42.3934 292.192 41.0632C289.973 39.6896 288.213 37.7666 286.912 35.2797C285.639 32.7638 285.003 29.8576 285.003 26.5754M309.838 26.6188C309.838 24.1753 309.128 22.2522 307.694 20.8353C306.303 19.4183 304.602 18.7243 302.591 18.7243C300.579 18.7243 298.848 19.4328 297.428 20.8353C296.038 22.2089 295.343 24.1174 295.343 26.561C295.343 29.0045 296.038 30.942 297.428 32.4024C298.848 33.8193 300.579 34.5133 302.591 34.5133C304.602 34.5133 306.318 33.8049 307.694 32.4024C309.114 30.9854 309.838 29.0624 309.838 26.6188Z" fill="#030730"/>
</g>
<path fill-rule="evenodd" clip-rule="evenodd" d="M79.4304 1.63384H33.4879C31.7277 1.63384 30.1746 2.77609 29.7013 4.43886L25.0863 20.2858H16.1079C14.3477 20.2858 12.7946 21.428 12.3213 23.0908L1.64177 59.6717C0.916981 62.1297 2.8103 64.5877 5.4284 64.5877H30.5592C32.2898 64.5877 33.8281 63.4744 34.331 61.855L39.2714 45.9502H22.8084C20.1903 45.9502 18.297 43.5067 19.0218 41.0342L25.0716 20.2713H41.9191C44.5668 20.2713 46.4601 22.7727 45.6909 25.2452L39.2714 45.9358H68.0705C69.8011 45.9358 71.3395 44.8224 71.8424 43.203L83.2023 6.59323C83.9714 4.12077 82.0781 1.61938 79.4304 1.61938V1.63384Z" fill="#0C1DCA"/>
</g>
<defs>
<clipPath id="clip0_4974_1211">
<rect width="320" height="68" fill="white"/>
</clipPath>
</defs>
</svg>
